<svg xmlns="http://www.w3.org/2000/svg" viewBox="0 0 64 64" role="img" aria-label="BLAST">
  <defs>
    <linearGradient id="g" x1="0" x2="1" y1="0" y2="1">
      <stop offset="0%" stop-color="#8b1e3f"/>
      <stop offset="100%" stop-color="#5d1029"/>
    </linearGradient>
  </defs>
  <rect width="64" height="64" rx="16" fill="url(#g)"/>
  <circle cx="32" cy="32" r="22" fill="none" stroke="#f7f1f4" stroke-width="3"/>
  <path d="M25 18h8.5c4.8 0 8.5 2.8 8.5 7 0 3-1.7 5.3-4.4 6.3 3.4.8 5.6 3.6 5.6 7 0 4.8-4 7.7-9.1 7.7H25V18zm8.1 11.8c2.3 0 3.9-1.2 3.9-3.1s-1.5-3-3.8-3H31v6.1h2.1zm.6 12.6c2.5 0 4.2-1.2 4.2-3.4s-1.8-3.3-4.3-3.3H31v6.7h2.7z" fill="#fff"/>
</svg>
